<svg width="16" height="16" viewBox="0 0 16 16" fill="none" xmlns="http://www.w3.org/2000/svg">
<g clip-path="url(#clip0_591_16576)">
<path fill-rule="evenodd" clip-rule="evenodd" d="M7.33301 2.00061C7.33301 1.28493 7.92715 0.623499 8.73134 0.703918L8.66501 1.36728L8.73147 0.703931C10.4151 0.872623 11.9886 1.61835 13.1852 2.8147C14.3819 4.01105 15.1279 5.58439 15.297 7.268L15.297 7.26815C15.3775 8.07137 14.7165 8.66656 14.0004 8.66661C14.0004 8.66661 14.0004 8.66661 14.0003 8.66661L8.66634 8.66728C8.31272 8.66728 7.97358 8.5268 7.72353 8.27675C7.47348 8.0267 7.33301 7.68757 7.33301 7.33394V2.00061ZM8.66634 2.0378V7.33394L13.9631 7.33328C13.8118 5.98143 13.2055 4.72033 12.2425 3.75761C11.2796 2.79486 10.0183 2.18878 8.66634 2.0378Z" fill="#3058FF"/>
<path fill-rule="evenodd" clip-rule="evenodd" d="M5.94397 1.61992C6.09123 1.95738 5.93705 2.35032 5.59959 2.49758C4.70132 2.88957 3.91275 3.49564 3.30282 4.2628C2.69289 5.02996 2.28017 5.93485 2.10075 6.89836C1.92133 7.86188 1.98066 8.85467 2.27357 9.78995C2.56648 10.7252 3.08404 11.5745 3.781 12.2636C4.47797 12.9526 5.33311 13.4605 6.27168 13.7427C7.21025 14.0249 8.20365 14.0729 9.16505 13.8825C10.1265 13.692 11.0266 13.269 11.7867 12.6504C12.5469 12.0317 13.1439 11.2363 13.5256 10.3336C13.669 9.99447 14.0601 9.8358 14.3993 9.9792C14.7384 10.1226 14.897 10.5138 14.7536 10.8529C14.2871 11.9562 13.5574 12.9284 12.6284 13.6845C11.6993 14.4406 10.5991 14.9577 9.4241 15.1904C8.24905 15.4231 7.03489 15.3644 5.88775 15.0195C4.74062 14.6746 3.69544 14.0539 2.84359 13.2118C1.99175 12.3696 1.35917 11.3316 1.00118 10.1884C0.643179 9.04531 0.570656 7.8319 0.78995 6.65427C1.00924 5.47665 1.51367 4.37067 2.25915 3.43303C3.00462 2.49539 3.96842 1.75464 5.06631 1.27554C5.40377 1.12828 5.79671 1.28246 5.94397 1.61992Z" fill="#3058FF"/>
</g>
<defs>
<clipPath id="clip0_591_16576">
<rect width="16" height="16" fill="white"/>
</clipPath>
</defs>
</svg>
