<svg width="16" height="16" viewBox="0 0 16 16" fill="none" xmlns="http://www.w3.org/2000/svg">
<path fill-rule="evenodd" clip-rule="evenodd" d="M2.66634 2.66659V5.99992H5.99967V2.66659H2.66634ZM1.33301 2.66659C1.33301 1.93021 1.92996 1.33325 2.66634 1.33325H5.99967C6.73605 1.33325 7.33301 1.93021 7.33301 2.66659V5.99992C7.33301 6.7363 6.73605 7.33325 5.99967 7.33325H2.66634C1.92996 7.33325 1.33301 6.7363 1.33301 5.99992V2.66659Z" fill="#3058FF"/>
<path fill-rule="evenodd" clip-rule="evenodd" d="M2.66634 10.0001V13.3334H5.99967V10.0001H2.66634ZM1.33301 10.0001C1.33301 9.2637 1.92996 8.66675 2.66634 8.66675H5.99967C6.73605 8.66675 7.33301 9.2637 7.33301 10.0001V13.3334C7.33301 14.0698 6.73605 14.6667 5.99967 14.6667H2.66634C1.92996 14.6667 1.33301 14.0698 1.33301 13.3334V10.0001Z" fill="#3058FF"/>
<path fill-rule="evenodd" clip-rule="evenodd" d="M8.66699 2.66667C8.66699 2.29848 8.96547 2 9.33366 2H14.0003C14.3685 2 14.667 2.29848 14.667 2.66667C14.667 3.03486 14.3685 3.33333 14.0003 3.33333H9.33366C8.96547 3.33333 8.66699 3.03486 8.66699 2.66667Z" fill="#3058FF"/>
<path fill-rule="evenodd" clip-rule="evenodd" d="M8.66699 5.99992C8.66699 5.63173 8.96547 5.33325 9.33366 5.33325H14.0003C14.3685 5.33325 14.667 5.63173 14.667 5.99992C14.667 6.36811 14.3685 6.66658 14.0003 6.66658H9.33366C8.96547 6.66658 8.66699 6.36811 8.66699 5.99992Z" fill="#3058FF"/>
<path fill-rule="evenodd" clip-rule="evenodd" d="M8.66699 9.99992C8.66699 9.63173 8.96547 9.33325 9.33366 9.33325H14.0003C14.3685 9.33325 14.667 9.63173 14.667 9.99992C14.667 10.3681 14.3685 10.6666 14.0003 10.6666H9.33366C8.96547 10.6666 8.66699 10.3681 8.66699 9.99992Z" fill="#3058FF"/>
<path fill-rule="evenodd" clip-rule="evenodd" d="M8.66699 13.3334C8.66699 12.9652 8.96547 12.6667 9.33366 12.6667H14.0003C14.3685 12.6667 14.667 12.9652 14.667 13.3334C14.667 13.7016 14.3685 14.0001 14.0003 14.0001H9.33366C8.96547 14.0001 8.66699 13.7016 8.66699 13.3334Z" fill="#3058FF"/>
</svg>
