<svg width="16" height="16" viewBox="0 0 16 16" fill="none" xmlns="http://www.w3.org/2000/svg">
<path fill-rule="evenodd" clip-rule="evenodd" d="M2.66699 2.66659C2.2988 2.66659 2.00033 2.96506 2.00033 3.33325V9.99992C2.00033 10.3681 2.2988 10.6666 2.66699 10.6666H13.3337C13.7018 10.6666 14.0003 10.3681 14.0003 9.99992V3.33325C14.0003 2.96506 13.7018 2.66659 13.3337 2.66659H2.66699ZM0.666992 3.33325C0.666992 2.22868 1.56242 1.33325 2.66699 1.33325H13.3337C14.4382 1.33325 15.3337 2.22868 15.3337 3.33325V9.99992C15.3337 11.1045 14.4382 11.9999 13.3337 11.9999H2.66699C1.56242 11.9999 0.666992 11.1045 0.666992 9.99992V3.33325Z" fill="#3058FF"/>
<path fill-rule="evenodd" clip-rule="evenodd" d="M4.66699 13.9999C4.66699 13.6317 4.96547 13.3333 5.33366 13.3333H10.667C11.0352 13.3333 11.3337 13.6317 11.3337 13.9999C11.3337 14.3681 11.0352 14.6666 10.667 14.6666H5.33366C4.96547 14.6666 4.66699 14.3681 4.66699 13.9999Z" fill="#3058FF"/>
<path fill-rule="evenodd" clip-rule="evenodd" d="M7.99967 10.6667C8.36786 10.6667 8.66634 10.9652 8.66634 11.3334V14.0001C8.66634 14.3683 8.36786 14.6667 7.99967 14.6667C7.63148 14.6667 7.33301 14.3683 7.33301 14.0001V11.3334C7.33301 10.9652 7.63148 10.6667 7.99967 10.6667Z" fill="#3058FF"/>
</svg>
