<svg width="16" height="16" viewBox="0 0 16 16" fill="none" xmlns="http://www.w3.org/2000/svg">
<g clip-path="url(#clip0_591_16580)">
<path fill-rule="evenodd" clip-rule="evenodd" d="M1.25278 1.25253C1.62785 0.877462 2.13656 0.666748 2.66699 0.666748H7.44847C7.97886 0.666861 8.48748 0.877649 8.86247 1.25275L14.6651 7.05534L14.6666 7.05684C15.0918 7.48475 15.3304 8.0635 15.3304 8.66675C15.3304 9.26999 15.0918 9.84875 14.6666 10.2767L14.6651 10.2782L10.2784 14.6648L10.2769 14.6663C9.84899 15.0915 9.27024 15.3302 8.66699 15.3302C8.06374 15.3302 7.48499 15.0915 7.05708 14.6663L7.05559 14.6648L1.25299 8.86222C0.877893 8.48724 0.667105 7.97861 0.666992 7.44822V2.66675C0.666992 2.13632 0.877706 1.62761 1.25278 1.25253ZM1.72483 8.39024L2.19573 7.91934L7.9969 13.7205C7.99711 13.7207 7.99731 13.7209 7.99752 13.7211C8.17557 13.8977 8.41619 13.9968 8.66699 13.9968C8.91781 13.9968 9.15846 13.8977 9.33651 13.7211C9.3367 13.7209 9.33689 13.7207 9.33708 13.7205L13.7208 9.33684C13.721 9.33665 13.7211 9.33646 13.7213 9.33627C13.898 9.15822 13.9971 8.91757 13.9971 8.66675C13.9971 8.41595 13.898 8.17532 13.7214 7.99728C13.7212 7.99707 13.721 7.99686 13.7208 7.99666L7.91959 2.19549L8.39049 1.72459L7.91952 2.19541C7.79455 2.07042 7.62507 2.00016 7.44833 2.00008C7.44828 2.00008 7.44823 2.00008 7.44818 2.00008H2.66699C2.49018 2.00008 2.32061 2.07032 2.19559 2.19534C2.07056 2.32037 2.00033 2.48994 2.00033 2.66675V7.44794C2.00033 7.44799 2.00033 7.44803 2.00033 7.44808C2.0004 7.62483 2.07066 7.79431 2.19566 7.91927L1.72483 8.39024Z" fill="#3058FF"/>
<path d="M5.00033 5.33342C5.18442 5.33342 5.33366 5.18418 5.33366 5.00008C5.33366 4.81599 5.18442 4.66675 5.00033 4.66675C4.81623 4.66675 4.66699 4.81599 4.66699 5.00008C4.66699 5.18418 4.81623 5.33342 5.00033 5.33342Z" fill="#3058FF"/>
<path fill-rule="evenodd" clip-rule="evenodd" d="M5 5.33333C5.18409 5.33333 5.33333 5.18409 5.33333 5C5.33333 4.81591 5.18409 4.66667 5 4.66667C4.81591 4.66667 4.66667 4.81591 4.66667 5C4.66667 5.18409 4.81591 5.33333 5 5.33333ZM4 5C4 4.44772 4.44772 4 5 4C5.55228 4 6 4.44772 6 5C6 5.55228 5.55228 6 5 6C4.44772 6 4 5.55228 4 5Z" fill="#3058FF"/>
</g>
<defs>
<clipPath id="clip0_591_16580">
<rect width="16" height="16" fill="white"/>
</clipPath>
</defs>
</svg>
