<svg width="16" height="16" viewBox="0 0 16 16" fill="none" xmlns="http://www.w3.org/2000/svg">
<path fill-rule="evenodd" clip-rule="evenodd" d="M2.66634 2.66659V5.99992H13.333V2.66659H2.66634ZM1.33301 2.66659C1.33301 1.93021 1.92996 1.33325 2.66634 1.33325H13.333C14.0694 1.33325 14.6663 1.93021 14.6663 2.66659V5.99992C14.6663 6.7363 14.0694 7.33325 13.333 7.33325H2.66634C1.92996 7.33325 1.33301 6.7363 1.33301 5.99992V2.66659Z" fill="#717171"/>
<path fill-rule="evenodd" clip-rule="evenodd" d="M2.66634 10.0001V13.3334H7.33301V10.0001H2.66634ZM1.33301 10.0001C1.33301 9.2637 1.92996 8.66675 2.66634 8.66675H7.33301C8.06939 8.66675 8.66634 9.2637 8.66634 10.0001V13.3334C8.66634 14.0698 8.06939 14.6667 7.33301 14.6667H2.66634C1.92996 14.6667 1.33301 14.0698 1.33301 13.3334V10.0001Z" fill="#717171"/>
<path fill-rule="evenodd" clip-rule="evenodd" d="M11.3333 10.0001V13.3334H13.3333V10.0001H11.3333ZM10 10.0001C10 9.2637 10.597 8.66675 11.3333 8.66675H13.3333C14.0697 8.66675 14.6667 9.2637 14.6667 10.0001V13.3334C14.6667 14.0698 14.0697 14.6667 13.3333 14.6667H11.3333C10.597 14.6667 10 14.0698 10 13.3334V10.0001Z" fill="#717171"/>
</svg>
