<svg width="16" height="16" viewBox="0 0 16 16" fill="none" xmlns="http://www.w3.org/2000/svg">
<path fill-rule="evenodd" clip-rule="evenodd" d="M7.00109 0.935101C7.30478 0.760095 7.64915 0.667969 7.99967 0.667969C8.3502 0.667969 8.69457 0.760095 8.99826 0.935101C8.99873 0.935373 8.9992 0.935646 8.99967 0.935918L13.6638 3.60111C13.6646 3.6016 13.6655 3.60209 13.6663 3.60258C13.9701 3.77795 14.2224 4.0301 14.3979 4.33375C14.5734 4.63739 14.666 4.98186 14.6663 5.33258V10.6673C14.666 11.018 14.5734 11.3625 14.3979 11.6661C14.2224 11.9698 13.9701 12.2219 13.6663 12.3973C13.6655 12.3978 13.6646 12.3983 13.6638 12.3988L8.99967 15.064C8.99925 15.0642 8.99882 15.0644 8.99839 15.0647C8.69467 15.2397 8.35025 15.3319 7.99967 15.3319C7.64909 15.3319 7.30468 15.2397 7.00096 15.0647C7.00053 15.0644 7.0001 15.0642 6.99967 15.064L2.33558 12.3988C2.33472 12.3983 2.33386 12.3978 2.33301 12.3973C2.02927 12.2219 1.77699 11.9698 1.60147 11.6661C1.42595 11.3625 1.33337 11.018 1.33301 10.6673V5.33258C1.33337 4.98186 1.42595 4.63739 1.60147 4.33375C1.77699 4.0301 2.02927 3.77795 2.33301 3.60258C2.33386 3.60209 2.33472 3.6016 2.33558 3.60111L7.00109 0.935101ZM7.99967 2.0013C7.88265 2.0013 7.76769 2.03211 7.66634 2.09062C7.66548 2.09111 7.66463 2.09161 7.66377 2.0921L2.99862 4.7579C2.89784 4.81633 2.81413 4.90014 2.75583 5.00101C2.69737 5.10214 2.66651 5.21686 2.66634 5.33367V10.6662C2.66651 10.783 2.69737 10.8977 2.75583 10.9989C2.81412 11.0997 2.89782 11.1835 2.99857 11.2419C2.99894 11.2422 2.99931 11.2424 2.99967 11.2426L7.66377 13.9078C7.66463 13.9083 7.66548 13.9088 7.66634 13.9093C7.76769 13.9678 7.88265 13.9986 7.99967 13.9986C8.1167 13.9986 8.23166 13.9678 8.33301 13.9093C8.33386 13.9088 8.33472 13.9083 8.33558 13.9078L12.9997 11.2426C13 11.2424 13.0004 11.2422 13.0008 11.242C13.1015 11.1835 13.1852 11.0997 13.2435 10.9989C13.302 10.8976 13.3329 10.7828 13.333 10.6659V5.33395C13.3329 5.21704 13.302 5.10222 13.2435 5.00101C13.1852 4.90014 13.1015 4.81631 13.0007 4.75789C13.0004 4.75769 13 4.75749 12.9997 4.75729L8.33558 2.0921C8.33472 2.09161 8.33386 2.09111 8.33301 2.09062C8.23166 2.03211 8.1167 2.0013 7.99967 2.0013Z" fill="#717171"/>
<path fill-rule="evenodd" clip-rule="evenodd" d="M7.99967 7.33325C8.36786 7.33325 8.66634 7.63173 8.66634 7.99992V14.6666C8.66634 15.0348 8.36786 15.3333 7.99967 15.3333C7.63148 15.3333 7.33301 15.0348 7.33301 14.6666V7.99992C7.33301 7.63173 7.63148 7.33325 7.99967 7.33325Z" fill="#717171"/>
<path fill-rule="evenodd" clip-rule="evenodd" d="M1.63198 4.3177C1.82477 4.00401 2.23534 3.906 2.54902 4.09878L7.67464 7.24881C7.77402 7.30437 7.88602 7.33357 7.99996 7.33357C8.11391 7.33357 8.2259 7.30437 8.32528 7.24881L13.4509 4.09878C13.7646 3.906 14.1752 4.00401 14.3679 4.3177C14.5607 4.63139 14.4627 5.04196 14.149 5.23474L9.01369 8.39074C9.00816 8.39414 9.00259 8.39745 8.99696 8.40069C8.69364 8.57511 8.34986 8.66691 7.99996 8.66691C7.65007 8.66691 7.30629 8.57511 7.00296 8.40069C6.99734 8.39745 6.99176 8.39414 6.98624 8.39074L1.8509 5.23474C1.53722 5.04196 1.4392 4.63139 1.63198 4.3177Z" fill="#717171"/>
<path fill-rule="evenodd" clip-rule="evenodd" d="M4.42116 2.51561C4.60402 2.19604 5.01132 2.08522 5.33089 2.26808L11.3309 5.70141C11.6505 5.88428 11.7613 6.29158 11.5784 6.61115C11.3956 6.93072 10.9883 7.04154 10.6687 6.85868L4.66868 3.42534C4.34911 3.24248 4.23829 2.83518 4.42116 2.51561Z" fill="#717171"/>
</svg>
