<svg width="16" height="16" viewBox="0 0 16 16" fill="none" xmlns="http://www.w3.org/2000/svg">
<g clip-path="url(#clip0_591_16538)">
<path fill-rule="evenodd" clip-rule="evenodd" d="M5.18777 2.16105C5.06511 2.05556 4.90829 1.99828 4.74652 1.99987C4.74433 1.99989 4.74214 1.9999 4.73996 1.9999H2.74032C2.64785 2.00003 2.55643 2.01938 2.47185 2.05674C2.38719 2.09414 2.31124 2.14875 2.24884 2.21711C2.18644 2.28546 2.13896 2.36606 2.10942 2.45378C2.08034 2.5401 2.06927 2.63145 2.07687 2.72219C2.28537 4.67656 2.95082 6.55448 4.01948 8.2041C4.02053 8.20574 4.02159 8.20738 4.02263 8.20902C4.9937 9.7372 6.28933 11.0328 7.8175 12.0039C7.81857 12.0046 7.81963 12.0053 7.8207 12.0059L7.82269 12.0072C9.46458 13.072 11.3331 13.7372 13.2784 13.9497C13.3692 13.9572 13.4605 13.946 13.5469 13.9168C13.6348 13.8871 13.7156 13.8393 13.784 13.7766C13.8524 13.7138 13.9069 13.6374 13.9441 13.5524C13.9813 13.4673 14.0003 13.3754 14 13.2826C14 13.2817 14 13.2808 14 13.2799V11.2799C14 11.2744 14 11.2689 14.0002 11.2634C14.0042 11.0999 13.948 10.9406 13.8423 10.8159C13.7372 10.6917 13.5902 10.6104 13.4292 10.587C12.7406 10.4959 12.0644 10.3274 11.4136 10.0845L11.412 10.0839C11.2927 10.0391 11.1631 10.0294 11.0384 10.056C10.9143 10.0824 10.8003 10.1438 10.7098 10.2329C10.7094 10.2332 10.7091 10.2336 10.7087 10.2339L9.86469 11.078C9.65248 11.2902 9.32464 11.3344 9.06376 11.1861C7.29041 10.1777 5.82211 8.70944 4.81376 6.9361C4.66542 6.67521 4.70968 6.34737 4.92188 6.13516L5.76702 5.29002C5.85605 5.19957 5.91741 5.08558 5.94389 4.96144C5.97047 4.83678 5.96077 4.70712 5.91592 4.58781L5.91536 4.58631C5.67251 3.9355 5.50393 3.25935 5.41283 2.57072C5.38971 2.4115 5.30979 2.26599 5.18777 2.16105ZM4.73701 0.666569C5.22104 0.662678 5.6901 0.834465 6.05716 1.15013C6.42513 1.46659 6.66547 1.90605 6.73339 2.3866C6.73368 2.38864 6.73396 2.39069 6.73423 2.39273C6.81205 2.98273 6.95633 3.56204 7.16435 4.11961C7.29859 4.47727 7.32758 4.86591 7.2479 5.23954C7.16814 5.61351 6.98285 5.95677 6.71399 6.22866C6.71312 6.22955 6.71224 6.23043 6.71136 6.23131L6.2333 6.70937C7.0172 7.93913 8.06072 8.98266 9.29049 9.76656L9.76855 9.2885C9.76943 9.28762 9.77031 9.28674 9.7712 9.28587C10.0431 9.017 10.3863 8.83172 10.7603 8.75196C11.134 8.67226 11.5227 8.70128 11.8804 8.83557C12.4379 9.04355 13.0172 9.18782 13.6071 9.26563C13.6091 9.26589 13.6111 9.26616 13.6131 9.26644C14.0988 9.33497 14.5425 9.57964 14.8596 9.95393C15.1748 10.3259 15.3432 10.8001 15.3333 11.2873V13.279C15.3342 13.5569 15.2771 13.8319 15.1658 14.0865C15.0542 14.3417 14.8906 14.5708 14.6854 14.7591C14.4801 14.9473 14.2379 15.0907 13.974 15.1799C13.7102 15.2691 13.4307 15.3023 13.1533 15.2772C13.1493 15.2768 13.1453 15.2764 13.1413 15.276C10.9872 15.0419 8.91799 14.3061 7.0998 13.1276C5.40837 12.0522 3.97416 10.618 2.89884 8.92658C1.71616 7.10009 0.980133 5.02079 0.75035 2.85697C0.749982 2.8535 0.749641 2.85004 0.749328 2.84657C0.724338 2.57004 0.757203 2.29133 0.845828 2.02819C0.934453 1.76506 1.0769 1.52326 1.26409 1.31819C1.45129 1.11312 1.67913 0.949278 1.93312 0.837091C2.1871 0.724903 2.46167 0.66683 2.73933 0.666569L4.73701 0.666569Z" fill="#717171"/>
</g>
<defs>
<clipPath id="clip0_591_16538">
<rect width="16" height="16" fill="white"/>
</clipPath>
</defs>
</svg>
