<svg width="16" height="16" viewBox="0 0 16 16" fill="none" xmlns="http://www.w3.org/2000/svg">
<path fill-rule="evenodd" clip-rule="evenodd" d="M1.6433 10.3096C2.26842 9.68444 3.11627 9.33325 4.00033 9.33325H8.00033C8.88438 9.33325 9.73223 9.68444 10.3573 10.3096C10.9825 10.9347 11.3337 11.7825 11.3337 12.6666V13.9999C11.3337 14.3681 11.0352 14.6666 10.667 14.6666C10.2988 14.6666 10.0003 14.3681 10.0003 13.9999V12.6666C10.0003 12.1362 9.78961 11.6274 9.41454 11.2524C9.03947 10.8773 8.53076 10.6666 8.00033 10.6666H4.00033C3.46989 10.6666 2.96118 10.8773 2.58611 11.2524C2.21104 11.6274 2.00033 12.1362 2.00033 12.6666V13.9999C2.00033 14.3681 1.70185 14.6666 1.33366 14.6666C0.965469 14.6666 0.666992 14.3681 0.666992 13.9999V12.6666C0.666992 11.7825 1.01818 10.9347 1.6433 10.3096Z" fill="#717171"/>
<path fill-rule="evenodd" clip-rule="evenodd" d="M6.00033 2.66659C4.89576 2.66659 4.00033 3.56202 4.00033 4.66659C4.00033 5.77115 4.89576 6.66659 6.00033 6.66659C7.10489 6.66659 8.00032 5.77115 8.00032 4.66659C8.00032 3.56202 7.10489 2.66659 6.00033 2.66659ZM2.66699 4.66659C2.66699 2.82564 4.15938 1.33325 6.00033 1.33325C7.84127 1.33325 9.33366 2.82564 9.33366 4.66659C9.33366 6.50753 7.84127 7.99992 6.00033 7.99992C4.15938 7.99992 2.66699 6.50753 2.66699 4.66659Z" fill="#717171"/>
<path fill-rule="evenodd" clip-rule="evenodd" d="M12.0213 9.92008C12.1134 9.56359 12.477 9.34921 12.8335 9.44125C13.5486 9.62589 14.1821 10.0428 14.6346 10.6265C15.0871 11.2102 15.3329 11.9277 15.3335 12.6663L15.3335 14.0001C15.3335 14.3683 15.035 14.6667 14.6668 14.6667C14.2986 14.6667 14.0002 14.3683 14.0002 14.0001V12.667C13.9998 12.2239 13.8523 11.7936 13.5808 11.4434C13.3093 11.0932 12.9292 10.843 12.5002 10.7322C12.1437 10.6402 11.9293 10.2766 12.0213 9.92008Z" fill="#717171"/>
<path fill-rule="evenodd" clip-rule="evenodd" d="M10.021 1.92139C10.1123 1.56471 10.4755 1.34959 10.8322 1.44092C11.5492 1.6245 12.1847 2.0415 12.6386 2.62617C13.0924 3.21085 13.3387 3.92994 13.3387 4.67008C13.3387 5.41022 13.0924 6.12932 12.6386 6.71399C12.1847 7.29866 11.5492 7.71566 10.8322 7.89925C10.4755 7.99057 10.1123 7.77546 10.021 7.41877C9.92967 7.06209 10.1448 6.69891 10.5015 6.60758C10.9317 6.49743 11.313 6.24723 11.5853 5.89643C11.8576 5.54562 12.0054 5.11417 12.0054 4.67008C12.0054 4.226 11.8576 3.79454 11.5853 3.44374C11.313 3.09293 10.9317 2.84273 10.5015 2.73258C10.1448 2.64126 9.92967 2.27807 10.021 1.92139Z" fill="#717171"/>
</svg>
